<svg width="20" height="20" xmlns="http://www.w3.org/2000/svg" viewBox="0 0 20 20"><path stroke="null" id="svg_1" p-id="4286" fill="#4e4e4e" d="m18.81016,3.03973a14.13519,13.59821 0 0 1 -8.53231,-2.93705a0.4299,0.41357 0 0 0 -0.55351,0a14.11113,13.57505 0 0 1 -8.53231,2.93705a0.4288,0.41251 0 0 0 -0.42443,0.4083l0,8.38075c0,3.75156 5.85119,8.17134 9.2324,8.17134c3.28166,0 9.2324,-4.41978 9.2324,-8.17134l0,-8.38075a0.43755,0.42093 0 0 0 -0.42443,-0.4083l0.00219,0zm-12.67814,3.5674l2.18777,-0.30518a0.43755,0.42093 0 0 0 0.32817,-0.2273l0.9659,-1.90261a0.43755,0.42093 0 0 1 0.77338,0l0.97793,1.90366a0.43755,0.42093 0 0 0 0.32817,0.2273l2.18777,0.30518a0.43099,0.41462 0 0 1 0.23956,0.70822l-1.57957,1.48063a0.4299,0.41357 0 0 0 -0.12361,0.36726l0.37302,2.09308a0.43099,0.41462 0 0 1 -0.6257,0.43672l-1.95259,-0.98709a0.42224,0.4062 0 0 0 -0.40036,0l-1.95806,0.98709a0.43099,0.41462 0 0 1 -0.6257,-0.43672l0.37302,-2.09308a0.4288,0.41251 0 0 0 -0.12361,-0.36726l-1.57957,-1.48063a0.43099,0.41462 0 0 1 0.23628,-0.70822l-0.00219,-0.00105zm8.17133,8.71119a0.42005,0.40409 0 0 1 -0.42115,0.40515l-7.76112,0a0.42115,0.40515 0 0 1 -0.42115,-0.40515l0,-1.01024a0.42115,0.40515 0 0 1 0.42115,-0.40515l7.76112,0a0.42115,0.40515 0 0 1 0.42115,0.40515l0,1.01024zm0,0"></path></svg>
