<svg width="20" height="20" xmlns="http://www.w3.org/2000/svg" viewBox="0 0 20 20"><path stroke="null" id="svg_1" fill="#4e4e4e" p-id="22727" d="m16.00462,1.98881a9.39254,9.36939 0 0 0 -1.16813,-0.74841a0.66479,0.66315 0 0 0 -0.84523,0.17052l-2.50721,3.30629l-0.14246,0.25579a1.37707,1.37367 0 0 1 -1.15863,0.54l-0.49384,0a4.47309,4.46207 0 0 0 -4.18818,4.68943a0.49384,0.49263 0 0 0 0.28491,0.42631a1.17763,1.17473 0 1 1 -1.61449,1.40209l0,-0.07579a1.18713,1.1842 0 0 1 0.22793,-0.94736a0.72177,0.71999 0 0 0 0.15195,-0.52105a5.47028,5.45679 0 0 1 5.42279,-5.93047a1.01618,1.01368 0 0 0 0.80725,-0.40736l2.30777,-3.05997a0.41787,0.41684 0 0 0 -0.22793,-0.66315a10.02884,10.00412 0 0 0 -7.75906,18.31247a0.66479,0.66315 0 0 0 0.85473,-0.18l2.5357,-3.31576l0.17095,-0.23684a1.38656,1.38315 0 0 1 1.15864,-0.54a4.28315,4.27259 0 0 0 0.49384,0a4.51108,4.49996 0 0 0 3.29546,-1.77156a4.42561,4.4147 0 0 0 0.89272,-2.91787a0.49384,0.49263 0 0 0 -0.28491,-0.42631a1.17763,1.17473 0 0 1 -0.70278,-0.84315a1.17763,1.17473 0 0 1 2.29828,-0.53052a0.27541,0.27473 0 0 0 0,0.08526a1.19662,1.19367 0 0 1 -0.22793,0.94736a0.72177,0.71999 0 0 0 -0.15195,0.52105a5.47028,5.45679 0 0 1 -5.42279,5.93047a1.01618,1.01368 0 0 0 -0.80725,0.40736l-2.28878,3.05997a0.42737,0.42631 0 0 0 0.21843,0.66315a10.03834,10.01359 0 0 0 8.87021,-17.60195z"></path></svg>
